<?xml version="1.0" encoding="UTF-8" standalone="no"?>
<svg
   version="1.1"
   x="0px"
   y="0px"
   viewBox="0 0 100 125"
   style="enable-background:new 0 0 100 100;"
   xml:space="preserve"
   id="svg20"
   sodipodi:docname="bullet.svg"
   inkscape:version="1.2.2 (732a01da63, 2022-12-09)"
   xmlns:inkscape="http://www.inkscape.org/namespaces/inkscape"
   xmlns:sodipodi="http://sodipodi.sourceforge.net/DTD/sodipodi-0.dtd"
   xmlns="http://www.w3.org/2000/svg"
   xmlns:svg="http://www.w3.org/2000/svg"><defs
     id="defs24" /><sodipodi:namedview
     id="namedview22"
     pagecolor="#ffffff"
     bordercolor="#000000"
     borderopacity="0.25"
     inkscape:showpageshadow="2"
     inkscape:pageopacity="0.0"
     inkscape:pagecheckerboard="0"
     inkscape:deskcolor="#d1d1d1"
     showgrid="false"
     inkscape:zoom="6.696"
     inkscape:cx="50.029869"
     inkscape:cy="62.425329"
     inkscape:window-width="1920"
     inkscape:window-height="1017"
     inkscape:window-x="-8"
     inkscape:window-y="-8"
     inkscape:window-maximized="1"
     inkscape:current-layer="svg20" /><g
     id="g14"
     style="fill:#ff7f2a"><path
       d="M64.1,15.2H10.6c-1.6,0-3,1.3-3,3v10.1c0,1.6,1.3,3,3,3h53.5c1.6,0,3-1.3,3-3V18.1C67.1,16.5,65.7,15.2,64.1,15.2z"
       id="path2"
       style="fill:#ff7f2a" /><path
       d="M64.1,42.2H10.6c-1.6,0-3,1.3-3,3v10.1c0,1.6,1.3,3,3,3h53.5c1.6,0,3-1.3,3-3V45.1C67.1,43.5,65.7,42.2,64.1,42.2z"
       id="path4"
       style="fill:#ff7f2a" /><path
       d="M64.1,69.2H10.6c-1.6,0-3,1.3-3,3v10.1c0,1.6,1.3,3,3,3h53.5c1.6,0,3-1.3,3-3V72.1C67.1,70.5,65.7,69.2,64.1,69.2z"
       id="path6"
       style="fill:#ff7f2a" /><path
       d="M90.1,15H79.6c-1.6,0-3,1.3-3,3V28c0,1.6,1.3,3,3,3h10.5c1.6,0,3-1.3,3-3V18C93.1,16.3,91.7,15,90.1,15z"
       id="path8"
       style="fill:#ff7f2a" /><path
       d="M90.1,42H79.6c-1.6,0-3,1.3-3,3V55c0,1.6,1.3,3,3,3h10.5c1.6,0,3-1.3,3-3V45C93.1,43.3,91.7,42,90.1,42z"
       id="path10"
       style="fill:#ff7f2a" /><path
       d="M90.1,69H79.6c-1.6,0-3,1.3-3,3V82c0,1.6,1.3,3,3,3h10.5c1.6,0,3-1.3,3-3V72C93.1,70.3,91.7,69,90.1,69z"
       id="path12"
       style="fill:#ff7f2a" /></g><text
     x="0"
     y="115"
     fill="#000000"
     font-size="5px"
     font-weight="bold"
     font-family="'Helvetica Neue', Helvetica, Arial-Unicode, Arial, Sans-serif"
     id="text16"
     style="fill:#ffffff">Created by Viktor Vorobyev</text><text
     x="0"
     y="120"
     fill="#000000"
     font-size="5px"
     font-weight="bold"
     font-family="'Helvetica Neue', Helvetica, Arial-Unicode, Arial, Sans-serif"
     id="text18"
     style="fill:#ffffff">from the Noun Project</text></svg>
