<?xml version="1.0" encoding="UTF-8" standalone="no"?>
<svg
   version="1.0"
   width="512.000000pt"
   height="512.000000pt"
   viewBox="0 0 512.000000 512.000000"
   preserveAspectRatio="xMidYMid meet"
   id="svg6"
   sodipodi:docname="check.svg"
   inkscape:version="1.2.2 (732a01da63, 2022-12-09)"
   xmlns:inkscape="http://www.inkscape.org/namespaces/inkscape"
   xmlns:sodipodi="http://sodipodi.sourceforge.net/DTD/sodipodi-0.dtd"
   xmlns="http://www.w3.org/2000/svg"
   xmlns:svg="http://www.w3.org/2000/svg">
  <defs
     id="defs10" />
  <sodipodi:namedview
     id="namedview8"
     pagecolor="#ffffff"
     bordercolor="#000000"
     borderopacity="0.25"
     inkscape:showpageshadow="2"
     inkscape:pageopacity="0.0"
     inkscape:pagecheckerboard="0"
     inkscape:deskcolor="#d1d1d1"
     inkscape:document-units="pt"
     showgrid="false"
     inkscape:zoom="1.2260742"
     inkscape:cx="340.92553"
     inkscape:cy="341.74114"
     inkscape:window-width="1920"
     inkscape:window-height="1017"
     inkscape:window-x="-8"
     inkscape:window-y="-8"
     inkscape:window-maximized="1"
     inkscape:current-layer="svg6" />
  <g
     transform="translate(0.000000,512.000000) scale(0.100000,-0.100000)"
     fill="#000000"
     stroke="none"
     id="g4"
     style="fill:#008000">
    <path
       d="M4473 4540 c-126 -26 -51 43 -1423 -1326 l-1275 -1274 -480 480 c-518 518 -529 527 -657 551 -51 9 -79 9 -124 1 -113 -23 -158 -53 -306 -200 -114 -115 -142 -149 -170 -207 -30 -64 -33 -78 -33 -165 0 -83 4 -103 29 -160 28 -61 77 -113 799 -837 556 -557 784 -779 821 -800 71 -39 168 -39 241 -1 38 20 432 409 1606 1585 1481 1483 1557 1561 1585 1623 25 57 29 77 29 160 0 137 -27 191 -176 345 -126 130 -187 179 -257 205 -59 22 -154 31 -209 20z"
       id="path2"
       style="fill:#008000" />
  </g>
</svg>
