<?xml version="1.0" encoding="UTF-8" standalone="no"?>
<svg
   version="1.0"
   width="512.000000pt"
   height="512.000000pt"
   viewBox="0 0 512.000000 512.000000"
   preserveAspectRatio="xMidYMid meet"
   id="svg6"
   sodipodi:docname="close.svg"
   inkscape:version="1.2.2 (732a01da63, 2022-12-09)"
   xmlns:inkscape="http://www.inkscape.org/namespaces/inkscape"
   xmlns:sodipodi="http://sodipodi.sourceforge.net/DTD/sodipodi-0.dtd"
   xmlns="http://www.w3.org/2000/svg"
   xmlns:svg="http://www.w3.org/2000/svg">
  <defs
     id="defs10" />
  <sodipodi:namedview
     id="namedview8"
     pagecolor="#ffffff"
     bordercolor="#000000"
     borderopacity="0.25"
     inkscape:showpageshadow="2"
     inkscape:pageopacity="0.0"
     inkscape:pagecheckerboard="0"
     inkscape:deskcolor="#d1d1d1"
     inkscape:document-units="pt"
     showgrid="false"
     inkscape:zoom="1.2260742"
     inkscape:cx="340.92553"
     inkscape:cy="341.74114"
     inkscape:window-width="1920"
     inkscape:window-height="1017"
     inkscape:window-x="-8"
     inkscape:window-y="-8"
     inkscape:window-maximized="1"
     inkscape:current-layer="svg6" />
  <g
     transform="matrix(0.1,0,0,-0.1,1.8351254,512)"
     fill="#000000"
     stroke="none"
     id="g4"
     style="fill:#ff0000">
    <path
       d="M 395,5076 C 225,5035 79,4888 40,4720 12,4600 33,4459 94,4356 108,4333 513,3921 994,3440 L 1870,2565 982,1675 C 26,717 52,746 15,605 -14,490 2,371 62,258 156,81 377,-5 611,44 c 140,30 103,-3 1054,947 484,483 885,879 890,879 5,0 406,-395 890,-879 816,-815 885,-881 945,-909 207,-96 457,-57 600,94 135,142 166,360 78,543 -29,61 -99,133 -927,958 l -896,891 871,874 c 543,544 881,890 897,918 44,78 60,152 55,259 -6,115 -30,185 -93,269 -123,163 -346,232 -540,166 -111,-37 -161,-84 -1029,-953 l -850,-850 -875,872 c -941,936 -918,916 -1056,952 -69,18 -160,18 -230,1 z"
       id="path2"
       style="fill:#ff0000" />
  </g>
</svg>
