<?xml version="1.0" encoding="UTF-8" standalone="no"?>
<svg
   version="1.1"
   x="0px"
   y="0px"
   viewBox="0 0 32 40"
   style="enable-background:new 0 0 32 32;"
   xml:space="preserve"
   id="svg10"
   sodipodi:docname="edit.svg"
   inkscape:version="1.2.2 (732a01da63, 2022-12-09)"
   xmlns:inkscape="http://www.inkscape.org/namespaces/inkscape"
   xmlns:sodipodi="http://sodipodi.sourceforge.net/DTD/sodipodi-0.dtd"
   xmlns="http://www.w3.org/2000/svg"
   xmlns:svg="http://www.w3.org/2000/svg"><defs
     id="defs14" /><sodipodi:namedview
     id="namedview12"
     pagecolor="#ffffff"
     bordercolor="#000000"
     borderopacity="0.25"
     inkscape:showpageshadow="2"
     inkscape:pageopacity="0.0"
     inkscape:pagecheckerboard="0"
     inkscape:deskcolor="#d1d1d1"
     showgrid="false"
     inkscape:zoom="20.925"
     inkscape:cx="16.009558"
     inkscape:cy="39.139785"
     inkscape:window-width="1920"
     inkscape:window-height="1017"
     inkscape:window-x="-8"
     inkscape:window-y="-8"
     inkscape:window-maximized="1"
     inkscape:current-layer="svg10" /><path
     d="M30,29c0-0.5522461-0.4477539-1-1-1H10.4767456l1.583252-0.4299927  c1.4799805-0.4100342,2.8400269-1.2000122,3.9299927-2.2800293l8.8800049-8.8900146l-9.2700195-9.2699585L6.710022,16.0100098  c-1.0800171,1.0899658-1.8699951,2.4499512-2.2800293,3.9299927L2.039978,28.7399902  C1.8582764,29.3470459,2.3614502,30.0184937,3,30h26C29.5522461,30,30,29.5522461,30,29z"
     id="path2"
     style="fill:#ff7f2a" /><path
     d="M28.9400024,7.2099609L24.789978,3.0599976c-1.4199829-1.4100342-3.7099609-1.4100342-5.1199951,0l-2.6599731,2.6499634  l9.2799683,9.2800293l2.6500244-2.6600342C29.6199951,11.6499634,30,10.7399902,30,9.7699585  C30,8.8099976,29.6199951,7.8999634,28.9400024,7.2099609z"
     id="path4"
     style="fill:#ff7f2a" /></svg>
